<?xml version="1.0" standalone="no"?>
<!DOCTYPE svg PUBLIC "-//W3C//DTD SVG 20010904//EN"
 "http://www.w3.org/TR/2001/REC-SVG-20010904/DTD/svg10.dtd">
<svg version="1.0" xmlns="http://www.w3.org/2000/svg"
 width="588.000000pt" height="588.000000pt" viewBox="0 0 588.000000 588.000000"
 preserveAspectRatio="xMidYMid meet">
<metadata>
Created by potrace 1.14, written by Peter Selinger 2001-2017
</metadata>
<g transform="translate(0.000000,588.000000) scale(0.100000,-0.100000)"
fill="#000000" stroke="none">
<path d="M1694 5835 c-324 -70 -518 -454 -404 -796 60 -178 190 -313 358 -372
52 -18 87 -20 387 -23 182 -1 332 -3 335 -3 4 -1 6 -111 6 -246 l0 -244 -746
-3 c-841 -4 -780 2 -912 -85 -88 -57 -150 -129 -198 -228 -52 -106 -69 -186
-66 -310 8 -263 168 -486 401 -557 69 -22 81 -22 792 -22 484 0 724 -4 726
-11 2 -5 3 -116 3 -245 l-1 -235 -945 -1 c-1035 -1 -1010 0 -1121 -61 -390
-212 -413 -801 -41 -1062 43 -30 137 -67 187 -75 22 -3 463 -5 980 -6 l941 0
0 -368 c1 -399 4 -430 60 -548 59 -124 190 -239 324 -284 72 -24 203 -34 265
-20 22 5 51 11 65 13 118 22 278 157 343 289 56 115 60 152 60 556 l1 362 942
0 c648 0 960 3 996 11 124 26 256 119 334 237 21 31 51 94 67 141 114 332 -55
698 -367 793 -69 21 -81 21 -1010 21 -518 0 -946 2 -952 4 -7 2 -10 83 -10
246 l1 242 725 1 c663 0 730 2 785 18 185 55 313 184 382 385 23 65 27 93 27
196 0 132 -14 196 -64 295 -63 125 -174 228 -297 278 l-68 27 -745 3 -746 3 0
244 c0 215 2 245 15 246 9 0 160 2 336 3 289 3 326 5 377 23 167 58 299 194
356 368 27 80 33 124 33 222 -1 273 -178 512 -427 577 -52 14 -202 15 -1244
15 -944 -1 -1197 -3 -1246 -14z"/>
</g>
</svg>
